<svg width="111" height="94" viewBox="0 0 111 94" fill="none" xmlns="http://www.w3.org/2000/svg">
<path d="M81.9997 30.73C81.9997 30.73 87.4997 29.73 87.4997 22.23C87.4997 15.23 81.9997 11.73 76.2497 11.73H61.4697V51.81H77.9997C77.9997 51.81 90.4997 51.23 90.4997 40.23C90.4997 31.73 81.9997 30.73 81.9997 30.73ZM67.2097 19.73H74.9997C74.9997 19.73 78.9997 19.73 78.9997 23.73C78.9997 27.73 74.9997 27.73 74.9997 27.73L67.2097 27.85V19.73ZM76.7097 44.31L67.2097 44.45V35.45H76.7097C76.7097 35.45 81.5697 35.45 81.5697 39.88C81.5697 44.31 76.7097 44.31 76.7097 44.31Z" fill="#2C45B6"/>
<path opacity="0.8" d="M59.12 14.05H55.29V49.48H59.12V14.05Z" fill="#2C45B6"/>
<path opacity="0.3" d="M34.3993 13.14H30.5693V50.39H34.3993V13.14Z" fill="#2C45B6"/>
<path opacity="0.1" d="M28.2196 20.72H24.3896V42.82H28.2196V20.72Z" fill="#2C45B6"/>
<path opacity="0.7" d="M52.9394 10.17H49.1094V53.37H52.9394V10.17Z" fill="#2C45B6"/>
<path opacity="0.45" d="M40.58 7.78003H36.75V55.76H40.58V7.78003Z" fill="#2C45B6"/>
<path opacity="0.6" d="M46.7597 0H42.9297V63.54H46.7597V0Z" fill="#2C45B6"/>
<path d="M0 80.35H5.82C7.3 80.36 8.41 80.69 9.15 81.35C9.9 82.01 10.27 82.88 10.27 83.96C10.28 84.51 10.14 85.04 9.83 85.55C9.67 85.79 9.45 86.02 9.15 86.23C8.85 86.46 8.49 86.66 8.06 86.85V86.89C8.88 87.08 9.5 87.47 9.92 88.04C10.31 88.64 10.51 89.29 10.51 89.99C10.5 91.15 10.09 92.07 9.29 92.75C8.5 93.46 7.51 93.81 6.33 93.81H0V80.35ZM2.28 82.17V86.02H5.57C6.4 86.02 7.01 85.83 7.4 85.44C7.8 85.08 8 84.63 8 84.09C8 83.55 7.8 83.09 7.4 82.71C7.01 82.36 6.4 82.18 5.57 82.17H2.28ZM2.28 87.84V91.88H5.79C6.63 91.87 7.25 91.66 7.64 91.26C8.03 90.87 8.23 90.4 8.23 89.86C8.23 89.32 8.03 88.83 7.64 88.44C7.25 88.05 6.63 87.85 5.79 87.84H2.28Z" fill="#1C1C1B"/>
<path d="M18.8004 86.25H19.3404C20.1904 86.24 20.8304 86.02 21.2604 85.59C21.6804 85.19 21.8904 84.7 21.8904 84.11C21.8804 83.41 21.6304 82.9 21.1404 82.59C20.7604 82.31 20.2004 82.17 19.4704 82.17H16.2204V93.81H13.9404V80.35H19.4804C20.7304 80.35 21.7504 80.65 22.5404 81.24C23.4904 81.91 23.9904 82.87 24.0304 84.11C24.0004 85.94 23.0304 87.18 21.1204 87.84L24.6004 93.81H21.8904L18.7904 88.06V86.25H18.8004Z" fill="#1C1C1B"/>
<path d="M32.8599 83.11H32.8199L28.8299 93.81H26.4199L31.8799 80.35H33.7899L39.2499 93.81H36.8499L32.8599 83.11Z" fill="#008ECE"/>
<path d="M41.1299 80.35H43.4099V93.81H41.1299V80.35Z" fill="#008ECE"/>
<path d="M46.8701 80.35H49.0101L55.8101 89.92H55.8501V80.35H58.1301V93.81H55.9801L49.1901 84.24H49.1501V93.81H46.8701V80.35Z" fill="#1C1C1B"/>
<path d="M61.6904 80.35H63.8304L70.6304 89.92H70.6704V80.35H72.9504V93.81H70.8004L64.0104 84.24H63.9704V93.81H61.6904V80.35Z" fill="#1C1C1B"/>
<path d="M75.8799 86.98C75.8799 85.42 75.9299 84.37 76.0299 83.84C76.1399 83.31 76.3099 82.88 76.5399 82.56C76.8999 81.94 77.4899 81.38 78.2899 80.9C79.0799 80.41 80.0699 80.16 81.2499 80.14C82.4499 80.15 83.4399 80.4 84.2399 80.9C85.0299 81.39 85.5999 81.94 85.9499 82.56C86.1999 82.89 86.3799 83.31 86.4799 83.84C86.5699 84.37 86.6099 85.42 86.6099 86.98C86.6099 88.54 86.5699 89.56 86.4799 90.1C86.3799 90.64 86.2099 91.08 85.9499 91.4C85.5999 92.02 85.0299 92.57 84.2399 93.04C83.4399 93.53 82.4499 93.79 81.2499 93.82C80.0699 93.8 79.0799 93.54 78.2899 93.04C77.4899 92.57 76.8999 92.02 76.5399 91.4C76.4299 91.2 76.3299 91 76.2399 90.82C76.1599 90.63 76.0899 90.39 76.0299 90.1C75.9299 89.56 75.8799 88.52 75.8799 86.98ZM78.1699 86.98C78.1699 88.3 78.2299 89.2 78.3399 89.67C78.4399 90.14 78.6299 90.52 78.9299 90.81C79.1699 91.09 79.4899 91.31 79.8799 91.48C80.2599 91.68 80.7299 91.78 81.2599 91.78C81.7899 91.78 82.2699 91.68 82.6699 91.48C83.0499 91.31 83.3499 91.08 83.5799 90.81C83.8799 90.52 84.0799 90.14 84.1899 89.67C84.2899 89.2 84.3399 88.31 84.3399 86.98C84.3399 85.65 84.2899 84.75 84.1899 84.27C84.0799 83.81 83.8799 83.44 83.5799 83.15C83.3499 82.87 83.0499 82.64 82.6699 82.46C82.2699 82.28 81.7999 82.19 81.2599 82.17C80.7199 82.18 80.2599 82.28 79.8799 82.46C79.4899 82.64 79.1699 82.88 78.9299 83.15C78.6299 83.44 78.4399 83.81 78.3399 84.27C78.2299 84.75 78.1699 85.65 78.1699 86.98Z" fill="#1C1C1B"/>
<path d="M110.89 82.28V80.35H103.57H101.3V93.82H103.57H110.89V91.89H103.57V88.06H109.82V87.92V86.25V86.1H103.57V82.28H110.89Z" fill="#1C1C1B"/>
<path d="M92.6598 82.17H88.5498V80.35H99.0598V82.17H94.9498V93.81H92.6598V82.17Z" fill="#1C1C1B"/>
</svg>
